<svg width="20" height="20" viewBox="0 0 20 20" fill="none" xmlns="http://www.w3.org/2000/svg">
<path d="M9.16683 5.41634H10.8335M9.16683 14.9997H10.8335M5.00016 10.833V9.16634M15.0002 10.833V9.16634M4.16683 6.66634H5.8335C6.05451 6.66634 6.26647 6.57854 6.42275 6.42226C6.57903 6.26598 6.66683 6.05402 6.66683 5.83301V4.16634C6.66683 3.94533 6.57903 3.73337 6.42275 3.57709C6.26647 3.42081 6.05451 3.33301 5.8335 3.33301H4.16683C3.94582 3.33301 3.73385 3.42081 3.57757 3.57709C3.42129 3.73337 3.3335 3.94533 3.3335 4.16634V5.83301C3.3335 6.05402 3.42129 6.26598 3.57757 6.42226C3.73385 6.57854 3.94582 6.66634 4.16683 6.66634ZM4.16683 16.6663H5.8335C6.05451 16.6663 6.26647 16.5785 6.42275 16.4223C6.57903 16.266 6.66683 16.054 6.66683 15.833V14.1663C6.66683 13.9453 6.57903 13.7334 6.42275 13.5771C6.26647 13.4208 6.05451 13.333 5.8335 13.333H4.16683C3.94582 13.333 3.73385 13.4208 3.57757 13.5771C3.42129 13.7334 3.3335 13.9453 3.3335 14.1663V15.833C3.3335 16.054 3.42129 16.266 3.57757 16.4223C3.73385 16.5785 3.94582 16.6663 4.16683 16.6663ZM14.1668 16.6663H15.8335C16.0545 16.6663 16.2665 16.5785 16.4228 16.4223C16.579 16.266 16.6668 16.054 16.6668 15.833V14.1663C16.6668 13.9453 16.579 13.7334 16.4228 13.5771C16.2665 13.4208 16.0545 13.333 15.8335 13.333H14.1668C13.9458 13.333 13.7339 13.4208 13.5776 13.5771C13.4213 13.7334 13.3335 13.9453 13.3335 14.1663V15.833C13.3335 16.054 13.4213 16.266 13.5776 16.4223C13.7339 16.5785 13.9458 16.6663 14.1668 16.6663ZM14.1668 6.66634H15.8335C16.0545 6.66634 16.2665 6.57854 16.4228 6.42226C16.579 6.26598 16.6668 6.05402 16.6668 5.83301V4.16634C16.6668 3.94533 16.579 3.73337 16.4228 3.57709C16.2665 3.42081 16.0545 3.33301 15.8335 3.33301H14.1668C13.9458 3.33301 13.7339 3.42081 13.5776 3.57709C13.4213 3.73337 13.3335 3.94533 13.3335 4.16634V5.83301C13.3335 6.05402 13.4213 6.26598 13.5776 6.42226C13.7339 6.57854 13.9458 6.66634 14.1668 6.66634Z" stroke="white" stroke-linecap="round" stroke-linejoin="round"/>
</svg>
