<svg width="20" height="20" viewBox="0 0 20 20" fill="none" xmlns="http://www.w3.org/2000/svg">
<path d="M7.49984 10.8332C9.34079 10.8332 10.8332 9.34079 10.8332 7.49984C10.8332 5.65889 9.34079 4.1665 7.49984 4.1665C5.65889 4.1665 4.1665 5.65889 4.1665 7.49984C4.1665 9.34079 5.65889 10.8332 7.49984 10.8332Z" stroke="#045D78" stroke-width="2" stroke-linecap="round" stroke-linejoin="round"/>
<path d="M13.3332 15.8332C13.3332 13.0715 10.7215 10.8332 7.49984 10.8332C4.27817 10.8332 1.6665 13.0715 1.6665 15.8332M12.4998 10.8332C13.0568 10.8331 13.6049 10.6935 14.0941 10.4271C14.5832 10.1607 14.9978 9.77595 15.2999 9.30804C15.6021 8.84012 15.7821 8.30395 15.8237 7.74852C15.8653 7.19308 15.767 6.63608 15.5378 6.12842C15.3086 5.62076 14.9559 5.17861 14.5119 4.84238C14.0678 4.50614 13.5466 4.28654 12.9958 4.20364C12.445 4.12073 11.8822 4.17717 11.3589 4.36778C10.8355 4.5584 10.3683 4.87713 9.99984 5.29484" stroke="#045D78" stroke-width="2" stroke-linecap="round" stroke-linejoin="round"/>
<path d="M18.3333 15.8334C18.3333 13.0717 15.7217 10.8334 12.5 10.8334C11.8275 10.8334 10.7475 10.5892 10 9.8042" stroke="#045D78" stroke-width="2" stroke-linecap="round" stroke-linejoin="round"/>
</svg>
