<svg width="20" height="20" viewBox="0 0 20 20" fill="none" xmlns="http://www.w3.org/2000/svg">
<path d="M7.49984 10.8337C9.34079 10.8337 10.8332 9.34127 10.8332 7.50033C10.8332 5.65938 9.34079 4.16699 7.49984 4.16699C5.65889 4.16699 4.1665 5.65938 4.1665 7.50033C4.1665 9.34127 5.65889 10.8337 7.49984 10.8337Z" stroke="white" stroke-width="2" stroke-linecap="round" stroke-linejoin="round"/>
<path d="M13.3332 15.8337C13.3332 13.072 10.7215 10.8337 7.49984 10.8337C4.27817 10.8337 1.6665 13.072 1.6665 15.8337M12.4998 10.8337C13.0568 10.8336 13.6049 10.694 14.0941 10.4276C14.5832 10.1612 14.9978 9.77644 15.2999 9.30853C15.6021 8.84061 15.7821 8.30444 15.8237 7.749C15.8653 7.19357 15.767 6.63657 15.5378 6.12891C15.3086 5.62125 14.9559 5.1791 14.5119 4.84286C14.0678 4.50663 13.5466 4.28703 12.9958 4.20412C12.445 4.12122 11.8822 4.17765 11.3589 4.36827C10.8355 4.55889 10.3683 4.87762 9.99984 5.29533" stroke="white" stroke-width="2" stroke-linecap="round" stroke-linejoin="round"/>
<path d="M18.3333 15.8339C18.3333 13.0722 15.7217 10.8339 12.5 10.8339C11.8275 10.8339 10.7475 10.5897 10 9.80469" stroke="white" stroke-width="2" stroke-linecap="round" stroke-linejoin="round"/>
</svg>
