<svg width="20" height="20" viewBox="0 0 20 20" fill="none" xmlns="http://www.w3.org/2000/svg">
<path d="M10.0002 0.672852L19.8627 7.08368L18.3335 8.07785V13.3337H16.6669V9.16119L15.8335 9.70285V14.5837C15.8335 15.8087 14.9885 16.7629 13.956 17.3662C12.9019 17.9804 11.5019 18.3329 10.0002 18.3329C8.49853 18.3329 7.09769 17.9804 6.04436 17.3662C5.01103 16.7629 4.16686 15.8079 4.16686 14.5829V9.70285L0.137695 7.08368L10.0002 0.672852ZM5.83353 10.7862V14.5837C5.83353 14.9695 6.10853 15.4729 6.88436 15.9254C7.64103 16.367 8.7402 16.667 10.0002 16.667C11.2602 16.667 12.3594 16.367 13.116 15.9254C13.8927 15.4729 14.166 14.9695 14.166 14.5837V10.7862L9.99936 13.4945L5.83353 10.7862ZM16.8044 7.08368L10.0002 2.66119L3.19603 7.08368L10.0002 11.5062L16.8044 7.08368Z" fill="white"/>
</svg>
