<svg width="20" height="20" viewBox="0 0 20 20" fill="none" xmlns="http://www.w3.org/2000/svg">
<path d="M10.0002 0.672363L19.8627 7.0832L18.3335 8.07736V13.3332H16.6669V9.1607L15.8335 9.70236V14.5832C15.8335 15.8082 14.9885 16.7624 13.956 17.3657C12.9019 17.9799 11.5019 18.3324 10.0002 18.3324C8.49853 18.3324 7.09769 17.9799 6.04436 17.3657C5.01103 16.7624 4.16686 15.8074 4.16686 14.5824V9.70236L0.137695 7.0832L10.0002 0.672363ZM5.83353 10.7857V14.5832C5.83353 14.969 6.10853 15.4724 6.88436 15.9249C7.64103 16.3665 8.7402 16.6665 10.0002 16.6665C11.2602 16.6665 12.3594 16.3665 13.116 15.9249C13.8927 15.4724 14.166 14.969 14.166 14.5832V10.7857L9.99936 13.494L5.83353 10.7857ZM16.8044 7.0832L10.0002 2.6607L3.19603 7.0832L10.0002 11.5057L16.8044 7.0832Z" fill="#045D78"/>
</svg>
