<svg width="20" height="21" viewBox="0 0 20 21" fill="none" xmlns="http://www.w3.org/2000/svg">
<path d="M16.2498 4.2498C15.6971 4.25145 15.1605 4.43642 14.7241 4.77572C14.2878 5.11503 13.9763 5.5895 13.8386 6.1248H11.2061C11.0895 5.19679 10.7149 4.32011 10.1248 3.59446C9.53468 2.86881 8.75278 2.32332 7.86802 2.02004C6.98326 1.71675 6.03114 1.66784 5.11996 1.87886C4.20877 2.08989 3.37509 2.55238 2.71373 3.21373C2.05238 3.87509 1.58989 4.70877 1.37886 5.61996C1.16784 6.53114 1.21675 7.48326 1.52004 8.36802C1.82332 9.25278 2.36881 10.0347 3.09446 10.6248C3.82011 11.2149 4.69679 11.5895 5.6248 11.7061V14.3386C5.03564 14.4907 4.52219 14.8524 4.18068 15.3561C3.83917 15.8597 3.69306 16.4705 3.76973 17.0742C3.8464 17.6778 4.14059 18.2328 4.59716 18.635C5.05373 19.0373 5.64132 19.2592 6.2498 19.2592C6.85829 19.2592 7.44588 19.0373 7.90245 18.635C8.35902 18.2328 8.65321 17.6778 8.72988 17.0742C8.80655 16.4705 8.66044 15.8597 8.31893 15.3561C7.97742 14.8524 7.46397 14.4907 6.8748 14.3386V11.7067C7.76328 11.5949 8.60503 11.245 9.31105 10.6942L11.6042 12.9879C11.3746 13.369 11.2522 13.8049 11.2498 14.2498C11.2498 14.7443 11.3964 15.2276 11.6711 15.6387C11.9458 16.0499 12.3363 16.3703 12.7931 16.5595C13.2499 16.7487 13.7526 16.7982 14.2375 16.7018C14.7225 16.6053 15.1679 16.3672 15.5176 16.0176C15.8672 15.6679 16.1053 15.2225 16.2018 14.7375C16.2982 14.2526 16.2487 13.7499 16.0595 13.2931C15.8703 12.8363 15.5499 12.4458 15.1387 12.1711C14.7276 11.8964 14.2443 11.7498 13.7498 11.7498C13.3049 11.7521 12.869 11.8746 12.4879 12.1042L10.1942 9.81043C10.7452 9.10467 11.0952 8.26313 11.2073 7.3748H13.8392C13.9569 7.82643 14.1989 8.236 14.5376 8.557C14.8764 8.87801 15.2984 9.09758 15.7558 9.19078C16.2131 9.28398 16.6873 9.24709 17.1247 9.08427C17.5621 8.92146 17.9451 8.63927 18.2302 8.26973C18.5152 7.90019 18.6909 7.45812 18.7374 6.99373C18.7838 6.52933 18.6991 6.06122 18.4928 5.64256C18.2866 5.2239 17.9671 4.87145 17.5706 4.62526C17.1741 4.37907 16.7165 4.24899 16.2498 4.2498ZM7.4998 16.7498C7.4998 16.997 7.42649 17.2387 7.28914 17.4443C7.15179 17.6498 6.95657 17.81 6.72816 17.9047C6.49975 17.9993 6.24842 18.024 6.00594 17.9758C5.76347 17.9276 5.54074 17.8085 5.36592 17.6337C5.19111 17.4589 5.07205 17.2361 5.02382 16.9937C4.97559 16.7512 5.00035 16.4999 5.09495 16.2715C5.18956 16.043 5.34978 15.8478 5.55534 15.7105C5.7609 15.5731 6.00258 15.4998 6.2498 15.4998C6.58122 15.5001 6.89897 15.6319 7.13332 15.8663C7.36767 16.1006 7.49947 16.4184 7.4998 16.7498ZM6.2498 10.4998C5.50812 10.4998 4.7831 10.2799 4.16642 9.86782C3.54973 9.45576 3.06908 8.87009 2.78526 8.18487C2.50143 7.49965 2.42716 6.74565 2.57186 6.01822C2.71655 5.29079 3.07371 4.6226 3.59815 4.09815C4.1226 3.57371 4.79079 3.21655 5.51822 3.07186C6.24564 2.92717 6.99964 3.00143 7.68487 3.28526C8.37009 3.56908 8.95576 4.04973 9.36782 4.66642C9.77987 5.2831 9.9998 6.00812 9.9998 6.7498C9.99865 7.74401 9.60319 8.69717 8.90018 9.40018C8.19717 10.1032 7.24401 10.4986 6.2498 10.4998ZM14.9998 14.2498C14.9998 14.497 14.9265 14.7387 14.7891 14.9443C14.6518 15.1498 14.4566 15.31 14.2282 15.4047C13.9998 15.4993 13.7484 15.524 13.5059 15.4758C13.2635 15.4276 13.0407 15.3085 12.8659 15.1337C12.6911 14.9589 12.5721 14.7361 12.5238 14.4937C12.4756 14.2512 12.5003 13.9999 12.595 13.7715C12.6896 13.543 12.8498 13.3478 13.0553 13.2105C13.2609 13.0731 13.5026 12.9998 13.7498 12.9998C14.0812 13.0001 14.399 13.1319 14.6333 13.3663C14.8677 13.6006 14.9995 13.9184 14.9998 14.2498ZM16.2498 7.9998C16.0026 7.9998 15.7609 7.92649 15.5553 7.78914C15.3498 7.65179 15.1896 7.45657 15.095 7.22816C15.0003 6.99975 14.9756 6.74842 15.0238 6.50594C15.0721 6.26347 15.1911 6.04074 15.3659 5.86592C15.5407 5.69111 15.7635 5.57205 16.0059 5.52382C16.2484 5.47559 16.4998 5.50035 16.7282 5.59496C16.9566 5.68956 17.1518 5.84978 17.2891 6.05534C17.4265 6.2609 17.4998 6.50258 17.4998 6.7498C17.4995 7.08122 17.3677 7.39897 17.1333 7.63332C16.899 7.86767 16.5812 7.99947 16.2498 7.9998Z" fill="white"/>
</svg>
