<svg width="18" height="18" viewBox="0 0 18 18" fill="none" xmlns="http://www.w3.org/2000/svg">
<path d="M15.2498 2.7498C14.6971 2.75145 14.1605 2.93642 13.7241 3.27572C13.2878 3.61503 12.9763 4.0895 12.8386 4.6248H10.2061C10.0895 3.69679 9.71489 2.82011 9.12478 2.09446C8.53468 1.36881 7.75278 0.823323 6.86802 0.520036C5.98326 0.21675 5.03114 0.167837 4.11996 0.378861C3.20877 0.589885 2.37509 1.05238 1.71373 1.71373C1.05238 2.37509 0.589885 3.20877 0.378861 4.11996C0.167837 5.03114 0.21675 5.98326 0.520036 6.86802C0.823323 7.75278 1.36881 8.53468 2.09446 9.12479C2.82011 9.71489 3.69679 10.0895 4.6248 10.2061V12.8386C4.03564 12.9907 3.52219 13.3524 3.18068 13.8561C2.83917 14.3597 2.69306 14.9705 2.76973 15.5742C2.8464 16.1778 3.14059 16.7328 3.59716 17.135C4.05373 17.5373 4.64132 17.7592 5.2498 17.7592C5.85829 17.7592 6.44588 17.5373 6.90245 17.135C7.35902 16.7328 7.65321 16.1778 7.72988 15.5742C7.80655 14.9705 7.66044 14.3597 7.31893 13.8561C6.97742 13.3524 6.46397 12.9907 5.8748 12.8386V10.2067C6.76328 10.0949 7.60503 9.74502 8.31105 9.19418L10.6042 11.4879C10.3746 11.869 10.2522 12.3049 10.2498 12.7498C10.2498 13.2443 10.3964 13.7276 10.6711 14.1387C10.9458 14.5499 11.3363 14.8703 11.7931 15.0595C12.2499 15.2487 12.7526 15.2982 13.2375 15.2018C13.7225 15.1053 14.1679 14.8672 14.5176 14.5176C14.8672 14.1679 15.1053 13.7225 15.2018 13.2375C15.2982 12.7526 15.2487 12.2499 15.0595 11.7931C14.8703 11.3363 14.5499 10.9458 14.1387 10.6711C13.7276 10.3964 13.2443 10.2498 12.7498 10.2498C12.3049 10.2521 11.869 10.3746 11.4879 10.6042L9.19418 8.31043C9.74517 7.60467 10.0952 6.76313 10.2073 5.8748H12.8392C12.9569 6.32643 13.1989 6.736 13.5376 7.057C13.8764 7.37801 14.2984 7.59758 14.7558 7.69078C15.2131 7.78398 15.6873 7.74709 16.1247 7.58427C16.5621 7.42146 16.9451 7.13927 17.2302 6.76973C17.5152 6.40019 17.6909 5.95812 17.7374 5.49373C17.7838 5.02933 17.6991 4.56122 17.4928 4.14256C17.2866 3.7239 16.9671 3.37145 16.5706 3.12526C16.1741 2.87907 15.7165 2.74899 15.2498 2.7498ZM6.4998 15.2498C6.4998 15.497 6.42649 15.7387 6.28914 15.9443C6.15179 16.1498 5.95657 16.31 5.72816 16.4047C5.49975 16.4993 5.24842 16.524 5.00594 16.4758C4.76347 16.4276 4.54074 16.3085 4.36592 16.1337C4.19111 15.9589 4.07205 15.7361 4.02382 15.4937C3.97559 15.2512 4.00035 14.9999 4.09495 14.7715C4.18956 14.543 4.34978 14.3478 4.55534 14.2105C4.7609 14.0731 5.00258 13.9998 5.2498 13.9998C5.58122 14.0001 5.89897 14.1319 6.13332 14.3663C6.36767 14.6006 6.49947 14.9184 6.4998 15.2498ZM5.2498 8.99981C4.50812 8.99981 3.7831 8.77987 3.16642 8.36782C2.54973 7.95576 2.06908 7.37009 1.78526 6.68487C1.50143 5.99965 1.42716 5.24565 1.57186 4.51822C1.71655 3.79079 2.07371 3.1226 2.59815 2.59815C3.1226 2.07371 3.79079 1.71655 4.51822 1.57186C5.24564 1.42717 5.99964 1.50143 6.68487 1.78526C7.37009 2.06908 7.95576 2.54973 8.36782 3.16642C8.77987 3.7831 8.9998 4.50812 8.9998 5.2498C8.99865 6.24401 8.60319 7.19717 7.90018 7.90018C7.19717 8.60319 6.24401 8.99865 5.2498 8.99981ZM13.9998 12.7498C13.9998 12.997 13.9265 13.2387 13.7891 13.4443C13.6518 13.6498 13.4566 13.81 13.2282 13.9047C12.9998 13.9993 12.7484 14.024 12.5059 13.9758C12.2635 13.9276 12.0407 13.8085 11.8659 13.6337C11.6911 13.4589 11.5721 13.2361 11.5238 12.9937C11.4756 12.7512 11.5003 12.4999 11.595 12.2715C11.6896 12.043 11.8498 11.8478 12.0553 11.7105C12.2609 11.5731 12.5026 11.4998 12.7498 11.4998C13.0812 11.5001 13.399 11.6319 13.6333 11.8663C13.8677 12.1006 13.9995 12.4184 13.9998 12.7498ZM15.2498 6.4998C15.0026 6.4998 14.7609 6.42649 14.5553 6.28914C14.3498 6.15179 14.1896 5.95657 14.095 5.72816C14.0003 5.49975 13.9756 5.24842 14.0238 5.00594C14.0721 4.76347 14.1911 4.54074 14.3659 4.36592C14.5407 4.19111 14.7635 4.07205 15.0059 4.02382C15.2484 3.97559 15.4998 4.00035 15.7282 4.09496C15.9566 4.18956 16.1518 4.34978 16.2891 4.55534C16.4265 4.7609 16.4998 5.00258 16.4998 5.2498C16.4995 5.58122 16.3677 5.89897 16.1333 6.13332C15.899 6.36767 15.5812 6.49947 15.2498 6.4998Z" fill="#045D78"/>
</svg>
