<svg width="44" height="44" viewBox="0 0 44 44" fill="none" xmlns="http://www.w3.org/2000/svg">
<rect width="44" height="44" rx="22" fill="#F7FBFF"/>
<path d="M22 20.5199C21.59 20.5199 21.25 20.1799 21.25 19.7699V16.4399C21.25 16.0299 21.59 15.6899 22 15.6899C22.41 15.6899 22.75 16.0299 22.75 16.4399V19.7699C22.75 20.1899 22.41 20.5199 22 20.5199Z" fill="#303030"/>
<path d="M22.0199 30.3502C19.4399 30.3502 16.8699 29.9402 14.4199 29.1202C13.5099 28.8202 12.8199 28.1702 12.5199 27.3502C12.2199 26.5302 12.3199 25.5902 12.8099 24.7702L14.0799 22.6502C14.3599 22.1802 14.6099 21.3002 14.6099 20.7502V18.6502C14.6099 14.5602 17.9299 11.2402 22.0199 11.2402C26.1099 11.2402 29.4299 14.5602 29.4299 18.6502V20.7502C29.4299 21.2902 29.6799 22.1802 29.9599 22.6502L31.2299 24.7702C31.6999 25.5502 31.7799 26.4802 31.4699 27.3302C31.1599 28.1802 30.4799 28.8302 29.6199 29.1202C27.1699 29.9502 24.5999 30.3502 22.0199 30.3502ZM22.0199 12.7502C18.7599 12.7502 16.1099 15.4002 16.1099 18.6602V20.7602C16.1099 21.5702 15.7899 22.7402 15.3699 23.4302L14.0999 25.5602C13.8399 25.9902 13.7799 26.4502 13.9299 26.8502C14.0799 27.2502 14.4199 27.5502 14.8999 27.7102C19.4999 29.2402 24.5599 29.2402 29.1599 27.7102C29.5899 27.5702 29.9199 27.2502 30.0699 26.8302C30.2299 26.4102 30.1799 25.9502 29.9499 25.5602L28.6799 23.4402C28.2599 22.7502 27.9399 21.5802 27.9399 20.7702V18.6702C27.9299 15.4002 25.2799 12.7502 22.0199 12.7502Z" fill="#303030"/>
<path d="M21.9999 32.8998C20.9299 32.8998 19.8799 32.4598 19.1199 31.6998C18.3599 30.9398 17.9199 29.8898 17.9199 28.8198H19.4199C19.4199 29.4998 19.6999 30.1598 20.1799 30.6398C20.6599 31.1198 21.3199 31.3998 21.9999 31.3998C23.4199 31.3998 24.5799 30.2398 24.5799 28.8198H26.0799C26.0799 31.0698 24.2499 32.8998 21.9999 32.8998Z" fill="#303030"/>
</svg>
