<svg width="131" height="108" viewBox="0 0 131 108" fill="none" xmlns="http://www.w3.org/2000/svg">
<path d="M60.1255 4.0145C57.5385 5.98213 47.9553 13.1239 38.9188 19.9013C29.8458 26.6423 22.4125 32.363 22.4125 32.6181C22.4125 32.8731 23.4328 34.4035 24.6352 36.0797C26.2385 38.1566 27.0037 38.9582 27.2587 38.7032C27.4774 38.4845 27.8782 38.3024 28.1332 38.3024C28.5341 38.3024 28.6069 39.7963 28.5341 45.845L28.4248 53.3876L18.4044 57.6872C12.9023 60.0192 8.09252 62.1326 7.76459 62.3512C7.14514 62.6792 7.10871 63.9909 7.10871 80.9344V99.1533H3.64713H0.185547V103.344V107.534L65.5183 107.461L130.815 107.352V103.344V99.3355L127.28 99.2261L123.709 99.1168L123.636 79.9506L123.527 60.7844L120.794 59.7641C119.3 59.1811 117.151 58.3795 116.057 58.0151C111.685 56.4483 103.814 53.6791 103.231 53.424C102.648 53.2054 102.575 52.4766 102.575 45.7356C102.575 38.9218 102.758 37.5007 103.486 38.6667C103.632 38.8854 103.851 38.9582 104.033 38.8489C104.507 38.5574 108.77 32.9096 108.77 32.5452C108.77 32.3995 108.405 32.0351 108.005 31.7436C107.567 31.4521 105.891 30.1768 104.252 28.9743C86.1056 15.2737 66.1742 0.625793 65.5912 0.516479C65.1175 0.443611 63.1863 1.68249 60.1255 4.0145ZM71.7856 14.9458C74.9921 17.3507 81.2958 22.0511 85.8141 25.4398L94.0126 31.5978L94.1219 65.3755L94.1948 99.1533H88.0004H81.806V83.1207V67.0881L66.0284 67.0152C57.3198 66.9424 49.9594 66.9424 49.6315 67.0152C49.0485 67.1246 49.012 68.4727 49.012 83.1571V99.1533L42.9269 99.0804L36.8054 98.9711L36.7325 65.5213L36.6597 32.0351L37.4613 31.3428C39.9026 29.1929 64.9353 10.6826 65.409 10.6462C65.7005 10.6462 68.5791 12.5774 71.7856 14.9458ZM106.766 63.4079C108.988 64.2095 111.831 65.2298 113.142 65.7035L115.511 66.5415L115.62 82.8656L115.693 99.1533H109.134H102.575V80.5701C102.575 70.3311 102.612 61.9868 102.685 61.9868C102.721 61.9868 104.58 62.6427 106.766 63.4079ZM28.6069 80.9709V99.1533H22.0482H15.4894L15.5622 83.4486L15.6716 67.744L21.866 65.084C25.2911 63.6265 28.1697 62.497 28.3519 62.6063C28.4976 62.6792 28.6069 70.9505 28.6069 80.9709ZM73.7168 87.2017L73.7897 99.1533H65.5912H57.3927V87.1288V75.1044L65.5183 75.1773L73.6075 75.2866L73.7168 87.2017Z" fill="#FAFAFA"/>
<path d="M59.7191 26.6956C56.9134 27.7159 54.6543 29.1734 52.9782 31.0682C51.1563 33.1087 50.3546 34.6026 49.553 37.4447C47.6218 44.1493 51.1198 51.7648 57.5693 54.8984C67.9176 59.9268 79.5412 52.6757 79.5777 41.1614C79.5777 35.1492 76.1525 29.8657 70.4682 27.2422C67.8083 25.9669 62.4884 25.7118 59.7191 26.6956ZM68.0998 35.1856C70.6504 36.7524 72.0351 40.1776 71.2334 42.9104C69.8124 47.6837 65.039 49.6878 60.7758 47.21C55.711 44.3315 56.4397 36.6431 61.9783 34.6026C63.6908 33.9832 66.5694 34.2382 68.0998 35.1856Z" fill="#FAFAFA"/>
</svg>
