<svg width="20" height="20" viewBox="0 0 20 20" fill="none" xmlns="http://www.w3.org/2000/svg">
<path fill-rule="evenodd" clip-rule="evenodd" d="M7.35714 3C6.85986 3 6.38295 3.19754 6.03132 3.54917C5.67969 3.90081 5.48214 4.37772 5.48214 4.875V6.21429H4.14286C3.57454 6.21429 3.02949 6.44005 2.62763 6.84191C2.22576 7.24378 2 7.78882 2 8.35714V15.8571C2 16.4255 2.22576 16.9705 2.62763 17.3724C3.02949 17.7742 3.57454 18 4.14286 18H14.8571C15.4255 18 15.9705 17.7742 16.3724 17.3724C16.7742 16.9705 17 16.4255 17 15.8571V8.35714C17 7.78882 16.7742 7.24378 16.3724 6.84191C15.9705 6.44005 15.4255 6.21429 14.8571 6.21429H13.5179V4.875C13.5179 4.37772 13.3203 3.90081 12.9687 3.54917C12.6171 3.19754 12.1401 3 11.6429 3H7.35714ZM11.9107 6.21429V4.875C11.9107 4.80396 11.8825 4.73583 11.8323 4.6856C11.782 4.63536 11.7139 4.60714 11.6429 4.60714H7.35714C7.2861 4.60714 7.21797 4.63536 7.16774 4.6856C7.11751 4.73583 7.08929 4.80396 7.08929 4.875V6.21429H11.9107ZM4.14286 7.82143H14.8571C14.9992 7.82143 15.1355 7.87787 15.236 7.97834C15.3364 8.0788 15.3929 8.21506 15.3929 8.35714V9.42857H3.60714V8.35714C3.60714 8.21506 3.66358 8.0788 3.76405 7.97834C3.86452 7.87787 4.00078 7.82143 4.14286 7.82143ZM3.60714 11.0357V15.8571C3.60714 15.9992 3.66358 16.1355 3.76405 16.236C3.86452 16.3364 4.00078 16.3929 4.14286 16.3929H14.8571C14.9992 16.3929 15.1355 16.3364 15.236 16.236C15.3364 16.1355 15.3929 15.9992 15.3929 15.8571V11.0357H10.5714V12.6429H8.42857V11.0357H3.60714Z" fill="#045D78"/>
</svg>
