<svg width="40" height="40" viewBox="0 0 40 40" fill="none" xmlns="http://www.w3.org/2000/svg">
<path d="M11.5863 21.7788C13.3657 23.5478 16.469 25.9999 19.9997 25.9999C23.5303 25.9999 26.6331 23.5478 28.4125 21.7788C28.8818 21.3123 29.1172 21.0782 29.2667 20.6201C29.3733 20.2933 29.3733 19.7067 29.2667 19.3799C29.1172 18.9218 28.8818 18.6877 28.4125 18.2211C26.633 16.4521 23.5303 14 19.9997 14C16.469 14 13.3657 16.4521 11.5863 18.2211C11.1166 18.688 10.8818 18.9216 10.7323 19.3799C10.6257 19.7067 10.6257 20.2933 10.7323 20.6201C10.8818 21.0784 11.1166 21.3119 11.5863 21.7788Z" stroke="#131313" stroke-width="2" stroke-linecap="round" stroke-linejoin="round"/>
<path d="M17.9995 20C17.9995 21.1046 18.8949 22 19.9995 22C21.1041 22 21.9995 21.1046 21.9995 20C21.9995 18.8954 21.1041 18 19.9995 18C18.8949 18 17.9995 18.8954 17.9995 20Z" stroke="#131313" stroke-width="2" stroke-linecap="round" stroke-linejoin="round"/>
</svg>
