<svg width="25" height="24" viewBox="0 0 25 24" fill="none" xmlns="http://www.w3.org/2000/svg">
<g clip-path="url(#clip0_1_2818)">
<path d="M1.01258 11.8563C1.01202 13.8728 1.54302 15.8417 2.5527 17.5771L0.916016 23.5066L7.03152 21.9156C8.72299 22.8292 10.6181 23.308 12.544 23.3081H12.5491C18.9067 23.3081 24.082 18.1748 24.0847 11.8653C24.086 8.80792 22.8871 5.93295 20.7089 3.76997C18.5311 1.60718 15.6347 0.415458 12.5486 0.414062C6.1902 0.414062 1.0153 5.54709 1.01267 11.8563" fill="url(#paint0_linear_1_2818)"/>
<path d="M0.600313 11.7998C0.599656 13.8795 1.14969 15.9097 2.19537 17.6993L0.5 23.814L6.83478 22.1732C8.58022 23.1133 10.5454 23.6089 12.5451 23.6097H12.5502C19.136 23.6097 24.4972 18.3154 24.5 11.8092C24.5011 8.6561 23.2591 5.69106 21.0031 3.46059C18.7468 1.23039 15.7468 0.00129652 12.5502 0C5.96337 0 0.602938 5.29349 0.600313 11.7998ZM4.37291 17.3911L4.13637 17.0202C3.14206 15.4585 2.61725 13.6537 2.618 11.8005C2.62006 6.39266 7.07544 1.99293 12.554 1.99293C15.2071 1.99404 17.7005 3.0157 19.5759 4.86935C21.4512 6.72318 22.4831 9.18749 22.4824 11.8085C22.48 17.2164 18.0245 21.6166 12.5502 21.6166H12.5463C10.7638 21.6157 9.01569 21.1429 7.49113 20.2493L7.12831 20.0367L3.36912 21.0103L4.37291 17.3911Z" fill="url(#paint1_linear_1_2818)"/>
<path d="M9.56383 6.89771C9.34014 6.4044 9.10473 6.39445 8.89202 6.3858C8.71783 6.37836 8.5187 6.37892 8.31977 6.37892C8.12064 6.37892 7.79711 6.45324 7.52364 6.74952C7.24989 7.04608 6.47852 7.76273 6.47852 9.22031C6.47852 10.6779 7.54848 12.0866 7.69764 12.2845C7.84698 12.482 9.76323 15.5689 12.7981 16.7564C15.3204 17.7433 15.8336 17.547 16.381 17.4975C16.9285 17.4482 18.1477 16.7811 18.3964 16.0892C18.6453 15.3975 18.6453 14.8046 18.5707 14.6807C18.496 14.5572 18.2969 14.4831 17.9983 14.335C17.6997 14.1869 16.2317 13.4701 15.958 13.3712C15.6843 13.2724 15.4853 13.2231 15.2861 13.5198C15.087 13.8159 14.5152 14.4831 14.341 14.6807C14.1669 14.8787 13.9926 14.9034 13.6941 14.7552C13.3953 14.6065 12.4337 14.2941 11.2929 13.2849C10.4052 12.4996 9.80598 11.5298 9.6318 11.2331C9.45761 10.937 9.61314 10.7764 9.76286 10.6288C9.89702 10.496 10.0615 10.2828 10.211 10.1099C10.3599 9.93687 10.4095 9.81343 10.5091 9.61585C10.6088 9.41808 10.5589 9.24506 10.4844 9.09687C10.4095 8.94868 9.82933 7.48347 9.56383 6.89771Z" fill="white"/>
</g>
<defs>
<linearGradient id="paint0_linear_1_2818" x1="1159.35" y1="2309.67" x2="1159.35" y2="0.414062" gradientUnits="userSpaceOnUse">
<stop stop-color="#1FAF38"/>
<stop offset="1" stop-color="#60D669"/>
</linearGradient>
<linearGradient id="paint1_linear_1_2818" x1="1200.5" y1="2381.4" x2="1200.5" y2="0" gradientUnits="userSpaceOnUse">
<stop stop-color="#F9F9F9"/>
<stop offset="1" stop-color="white"/>
</linearGradient>
<clipPath id="clip0_1_2818">
<rect width="24" height="24" fill="white" transform="translate(0.5)"/>
</clipPath>
</defs>
</svg>
