<svg width="24" height="24" viewBox="0 0 24 24" fill="none" xmlns="http://www.w3.org/2000/svg">
<g clip-path="url(#clip0_1_2779)">
<path d="M0 17.9998C0 18.7071 0.280952 19.3854 0.781049 19.8855C1.28115 20.3856 1.95942 20.6665 2.66667 20.6665H21.3333C22.0406 20.6665 22.7189 20.3856 23.219 19.8855C23.719 19.3854 24 18.7071 24 17.9998V14.6665H0V17.9998Z" fill="#138808"/>
<path d="M24 9.3335V6.00016C24 5.29292 23.719 4.61464 23.219 4.11454C22.7189 3.61445 22.0406 3.3335 21.3333 3.3335H2.66667C1.95942 3.3335 1.28115 3.61445 0.781049 4.11454C0.280952 4.61464 0 5.29292 0 6.00016L0 9.3335H24Z" fill="#FF9933"/>
<path d="M0 9.11133H24V14.8893H0V9.11133Z" fill="#F7F7F7"/>
<path d="M11.9997 14.6668C13.4724 14.6668 14.6663 13.4729 14.6663 12.0002C14.6663 10.5274 13.4724 9.3335 11.9997 9.3335C10.5269 9.3335 9.33301 10.5274 9.33301 12.0002C9.33301 13.4729 10.5269 14.6668 11.9997 14.6668Z" fill="#000080"/>
<path d="M12 14.25C13.2426 14.25 14.25 13.2426 14.25 12C14.25 10.7574 13.2426 9.75 12 9.75C10.7574 9.75 9.75 10.7574 9.75 12C9.75 13.2426 10.7574 14.25 12 14.25Z" fill="#F7F7F7"/>
<path d="M12.0662 11.1667L11.9995 11.6L11.9329 11.1667L11.9995 9.8667L12.0662 11.1667ZM11.4475 9.93937L11.7195 11.212L11.8962 11.6134L11.8482 11.178L11.4475 9.93937ZM10.9329 10.1527L11.5249 11.3114L11.7995 11.6534L11.6409 11.2447L10.9329 10.1527ZM10.4909 10.4914L11.3629 11.458L11.7169 11.7174L11.4575 11.3634L10.4909 10.4914ZM10.1522 10.9334L11.2442 11.6414L11.6529 11.8L11.3109 11.5254L10.1522 10.9334ZM9.93888 11.448L11.1775 11.8487L11.6129 11.8967L11.2115 11.72L9.93888 11.448ZM9.86621 12L11.1662 12.0667L11.5995 12L11.1662 11.9334L9.86621 12ZM9.93888 12.552L11.2115 12.28L11.6129 12.1034L11.1775 12.1514L9.93888 12.552ZM10.1522 13.0667L11.3109 12.4747L11.6529 12.2L11.2442 12.3587L10.1522 13.0667ZM10.4909 13.5087L11.4575 12.6367L11.7169 12.2827L11.3629 12.542L10.4909 13.5087ZM10.9329 13.8474L11.6409 12.7554L11.7995 12.3467L11.5249 12.6887L10.9329 13.8474ZM11.4475 14.0607L11.8482 12.822L11.8962 12.3867L11.7195 12.788L11.4475 14.0607ZM11.9995 14.1334L12.0662 12.8334L11.9995 12.4L11.9329 12.8334L11.9995 14.1334ZM12.5515 14.0607L12.2795 12.788L12.1029 12.3867L12.1509 12.822L12.5515 14.0607ZM13.0662 13.8474L12.4742 12.6887L12.1995 12.3467L12.3582 12.7554L13.0662 13.8474ZM13.5082 13.5087L12.6362 12.542L12.2822 12.2827L12.5415 12.6367L13.5082 13.5087ZM13.8469 13.0667L12.7549 12.3587L12.3462 12.2L12.6882 12.4747L13.8469 13.0667ZM14.0602 12.552L12.8215 12.1514L12.3862 12.1034L12.7875 12.28L14.0602 12.552ZM14.1329 12L12.8329 11.9334L12.3995 12L12.8329 12.0667L14.1329 12ZM14.0602 11.448L12.7875 11.72L12.3862 11.8967L12.8215 11.8487L14.0602 11.448ZM13.8469 10.9334L12.6882 11.5254L12.3462 11.8L12.7549 11.6414L13.8469 10.9334ZM13.5082 10.4914L12.5415 11.3634L12.2822 11.7174L12.6362 11.458L13.5082 10.4914ZM13.0662 10.1527L12.3582 11.2447L12.1995 11.6534L12.4742 11.3114L13.0662 10.1527ZM12.5515 9.93937L12.1509 11.178L12.1029 11.6134L12.2795 11.212L12.5515 9.93937Z" fill="#6666B3"/>
<path d="M11.7066 9.90583C11.7802 9.90583 11.8399 9.84613 11.8399 9.77249C11.8399 9.69886 11.7802 9.63916 11.7066 9.63916C11.6329 9.63916 11.5732 9.69886 11.5732 9.77249C11.5732 9.84613 11.6329 9.90583 11.7066 9.90583Z" fill="#000080"/>
<path d="M11.1402 10.0577C11.2138 10.0577 11.2735 9.99799 11.2735 9.92435C11.2735 9.85071 11.2138 9.79102 11.1402 9.79102C11.0665 9.79102 11.0068 9.85071 11.0068 9.92435C11.0068 9.99799 11.0665 10.0577 11.1402 10.0577Z" fill="#000080"/>
<path d="M10.6324 10.3507C10.706 10.3507 10.7657 10.291 10.7657 10.2173C10.7657 10.1437 10.706 10.084 10.6324 10.084C10.5587 10.084 10.499 10.1437 10.499 10.2173C10.499 10.291 10.5587 10.3507 10.6324 10.3507Z" fill="#000080"/>
<path d="M10.2173 10.7652C10.291 10.7652 10.3507 10.7055 10.3507 10.6319C10.3507 10.5582 10.291 10.4985 10.2173 10.4985C10.1437 10.4985 10.084 10.5582 10.084 10.6319C10.084 10.7055 10.1437 10.7652 10.2173 10.7652Z" fill="#000080"/>
<path d="M9.92533 11.273C9.99896 11.273 10.0587 11.2133 10.0587 11.1397C10.0587 11.066 9.99896 11.0063 9.92533 11.0063C9.85169 11.0063 9.79199 11.066 9.79199 11.1397C9.79199 11.2133 9.85169 11.273 9.92533 11.273Z" fill="#000080"/>
<path d="M9.77298 11.8399C9.84662 11.8399 9.90632 11.7802 9.90632 11.7066C9.90632 11.6329 9.84662 11.5732 9.77298 11.5732C9.69934 11.5732 9.63965 11.6329 9.63965 11.7066C9.63965 11.7802 9.69934 11.8399 9.77298 11.8399Z" fill="#000080"/>
<path d="M9.77298 12.4263C9.84662 12.4263 9.90632 12.3666 9.90632 12.293C9.90632 12.2194 9.84662 12.1597 9.77298 12.1597C9.69934 12.1597 9.63965 12.2194 9.63965 12.293C9.63965 12.3666 9.69934 12.4263 9.77298 12.4263Z" fill="#000080"/>
<path d="M9.92533 12.9932C9.99896 12.9932 10.0587 12.9335 10.0587 12.8599C10.0587 12.7863 9.99896 12.7266 9.92533 12.7266C9.85169 12.7266 9.79199 12.7863 9.79199 12.8599C9.79199 12.9335 9.85169 12.9932 9.92533 12.9932Z" fill="#000080"/>
<path d="M10.2173 13.501C10.291 13.501 10.3507 13.4413 10.3507 13.3677C10.3507 13.2941 10.291 13.2344 10.2173 13.2344C10.1437 13.2344 10.084 13.2941 10.084 13.3677C10.084 13.4413 10.1437 13.501 10.2173 13.501Z" fill="#000080"/>
<path d="M10.6324 13.9156C10.706 13.9156 10.7657 13.8559 10.7657 13.7823C10.7657 13.7086 10.706 13.6489 10.6324 13.6489C10.5587 13.6489 10.499 13.7086 10.499 13.7823C10.499 13.8559 10.5587 13.9156 10.6324 13.9156Z" fill="#000080"/>
<path d="M11.1402 14.2086C11.2138 14.2086 11.2735 14.1489 11.2735 14.0752C11.2735 14.0016 11.2138 13.9419 11.1402 13.9419C11.0665 13.9419 11.0068 14.0016 11.0068 14.0752C11.0068 14.1489 11.0665 14.2086 11.1402 14.2086Z" fill="#000080"/>
<path d="M11.7066 14.3604C11.7802 14.3604 11.8399 14.3007 11.8399 14.2271C11.8399 14.1534 11.7802 14.0938 11.7066 14.0938C11.6329 14.0938 11.5732 14.1534 11.5732 14.2271C11.5732 14.3007 11.6329 14.3604 11.7066 14.3604Z" fill="#000080"/>
<path d="M12.2935 14.3604C12.3671 14.3604 12.4268 14.3007 12.4268 14.2271C12.4268 14.1534 12.3671 14.0938 12.2935 14.0938C12.2199 14.0938 12.1602 14.1534 12.1602 14.2271C12.1602 14.3007 12.2199 14.3604 12.2935 14.3604Z" fill="#000080"/>
<path d="M12.8599 14.2086C12.9335 14.2086 12.9932 14.1489 12.9932 14.0752C12.9932 14.0016 12.9335 13.9419 12.8599 13.9419C12.7863 13.9419 12.7266 14.0016 12.7266 14.0752C12.7266 14.1489 12.7863 14.2086 12.8599 14.2086Z" fill="#000080"/>
<path d="M13.3687 13.9156C13.4423 13.9156 13.502 13.8559 13.502 13.7823C13.502 13.7086 13.4423 13.6489 13.3687 13.6489C13.295 13.6489 13.2354 13.7086 13.2354 13.7823C13.2354 13.8559 13.295 13.9156 13.3687 13.9156Z" fill="#000080"/>
<path d="M13.7827 13.501C13.8564 13.501 13.9161 13.4413 13.9161 13.3677C13.9161 13.2941 13.8564 13.2344 13.7827 13.2344C13.7091 13.2344 13.6494 13.2941 13.6494 13.3677C13.6494 13.4413 13.7091 13.501 13.7827 13.501Z" fill="#000080"/>
<path d="M14.0757 12.9932C14.1494 12.9932 14.209 12.9335 14.209 12.8599C14.209 12.7863 14.1494 12.7266 14.0757 12.7266C14.0021 12.7266 13.9424 12.7863 13.9424 12.8599C13.9424 12.9335 14.0021 12.9932 14.0757 12.9932Z" fill="#000080"/>
<path d="M14.2281 12.4263C14.3017 12.4263 14.3614 12.3666 14.3614 12.293C14.3614 12.2194 14.3017 12.1597 14.2281 12.1597C14.1544 12.1597 14.0947 12.2194 14.0947 12.293C14.0947 12.3666 14.1544 12.4263 14.2281 12.4263Z" fill="#000080"/>
<path d="M14.2281 11.8399C14.3017 11.8399 14.3614 11.7802 14.3614 11.7066C14.3614 11.6329 14.3017 11.5732 14.2281 11.5732C14.1544 11.5732 14.0947 11.6329 14.0947 11.7066C14.0947 11.7802 14.1544 11.8399 14.2281 11.8399Z" fill="#000080"/>
<path d="M14.0757 11.273C14.1494 11.273 14.209 11.2133 14.209 11.1397C14.209 11.066 14.1494 11.0063 14.0757 11.0063C14.0021 11.0063 13.9424 11.066 13.9424 11.1397C13.9424 11.2133 14.0021 11.273 14.0757 11.273Z" fill="#000080"/>
<path d="M13.7827 10.7652C13.8564 10.7652 13.9161 10.7055 13.9161 10.6319C13.9161 10.5582 13.8564 10.4985 13.7827 10.4985C13.7091 10.4985 13.6494 10.5582 13.6494 10.6319C13.6494 10.7055 13.7091 10.7652 13.7827 10.7652Z" fill="#000080"/>
<path d="M13.3687 10.3507C13.4423 10.3507 13.502 10.291 13.502 10.2173C13.502 10.1437 13.4423 10.084 13.3687 10.084C13.295 10.084 13.2354 10.1437 13.2354 10.2173C13.2354 10.291 13.295 10.3507 13.3687 10.3507Z" fill="#000080"/>
<path d="M12.8599 10.0577C12.9335 10.0577 12.9932 9.99799 12.9932 9.92435C12.9932 9.85071 12.9335 9.79102 12.8599 9.79102C12.7863 9.79102 12.7266 9.85071 12.7266 9.92435C12.7266 9.99799 12.7863 10.0577 12.8599 10.0577Z" fill="#000080"/>
<path d="M12.2935 9.90583C12.3671 9.90583 12.4268 9.84613 12.4268 9.77249C12.4268 9.69886 12.3671 9.63916 12.2935 9.63916C12.2199 9.63916 12.1602 9.69886 12.1602 9.77249C12.1602 9.84613 12.2199 9.90583 12.2935 9.90583Z" fill="#000080"/>
<path d="M12.0004 12.5999C12.3318 12.5999 12.6004 12.3313 12.6004 11.9999C12.6004 11.6685 12.3318 11.3999 12.0004 11.3999C11.669 11.3999 11.4004 11.6685 11.4004 11.9999C11.4004 12.3313 11.669 12.5999 12.0004 12.5999Z" fill="#000080"/>
</g>
<defs>
<clipPath id="clip0_1_2779">
<rect width="24" height="24" fill="white"/>
</clipPath>
</defs>
</svg>
