<svg width="20" height="20" viewBox="0 0 20 20" fill="none" xmlns="http://www.w3.org/2000/svg">
<g clip-path="url(#clip0_1_626)">
<path d="M12.0669 2.0063C11.9701 1.5887 11.729 1.2187 11.386 0.961589C11.043 0.704483 10.6202 0.576797 10.1922 0.601062C9.76419 0.625328 9.35853 0.799986 9.04678 1.09422C8.73503 1.38844 8.53723 1.78333 8.48828 2.2092C8.43932 2.63507 8.54237 3.06454 8.77923 3.42183C9.01609 3.77912 9.37153 4.04127 9.78285 4.16201C10.1942 4.28275 10.6349 4.25433 11.0273 4.08176C11.4197 3.90918 11.7385 3.60356 11.9276 3.2188C13.0782 3.48061 14.1479 4.0185 15.0443 4.78605C15.9406 5.5536 16.6368 6.52775 17.0725 7.62443L18.1819 7.18818C17.6686 5.88743 16.8417 4.73372 15.7749 3.82967C14.708 2.92562 13.4343 2.29926 12.0669 2.0063ZM10.3032 3.03005C10.222 3.03266 10.1411 3.01892 10.0653 2.98964C9.98947 2.96036 9.92033 2.91615 9.86197 2.85962C9.8036 2.8031 9.75718 2.73542 9.72549 2.6606C9.69379 2.58579 9.67746 2.50537 9.67746 2.42411C9.67746 2.34286 9.69379 2.26244 9.72549 2.18762C9.75718 2.11281 9.8036 2.04513 9.86197 1.9886C9.92033 1.93208 9.98947 1.88786 10.0653 1.85859C10.1411 1.82931 10.222 1.81557 10.3032 1.81818C10.464 1.81818 10.6182 1.88205 10.7319 1.99574C10.8456 2.10944 10.9094 2.26364 10.9094 2.42443C10.9094 2.58521 10.8456 2.73942 10.7319 2.85311C10.6182 2.9668 10.464 3.03005 10.3032 3.03005ZM7.6363 3.5338L7.18818 2.42505C5.88743 2.93839 4.73372 3.76526 3.82967 4.83211C2.92562 5.89896 2.29926 7.1727 2.0063 8.54005C1.5887 8.63683 1.2187 8.878 0.961589 9.22101C0.704483 9.56402 0.576797 9.98682 0.601062 10.4148C0.625328 10.8428 0.799986 11.2484 1.09422 11.5602C1.38844 11.8719 1.78333 12.0697 2.2092 12.1187C2.63507 12.1677 3.06454 12.0646 3.42183 11.8277C3.77912 11.5909 4.04127 11.2354 4.16201 10.8241C4.28275 10.4128 4.25433 9.97206 4.08176 9.57967C3.90918 9.18726 3.60356 8.86843 3.2188 8.67943C3.48169 7.52738 4.02133 6.45675 4.79104 5.56017C5.56075 4.66359 6.53734 3.96808 7.6363 3.5338ZM2.4238 10.9101C2.34419 10.9101 2.26535 10.8944 2.1918 10.8639C2.11825 10.8334 2.05141 10.7888 1.99512 10.7325C1.93882 10.6762 1.89417 10.6094 1.8637 10.5358C1.83323 10.4622 1.81755 10.3834 1.81755 10.3038C1.81755 10.2242 1.83323 10.1454 1.8637 10.0718C1.89417 9.99825 1.93882 9.93141 1.99512 9.87512C2.05141 9.81882 2.11825 9.77417 2.1918 9.7437C2.26535 9.71323 2.34419 9.69755 2.4238 9.69755C2.58459 9.69755 2.73879 9.76142 2.85248 9.87512C2.96618 9.98881 3.03005 10.143 3.03005 10.3038C3.03005 10.4646 2.96618 10.6188 2.85248 10.7325C2.73879 10.8462 2.58459 10.9101 2.4238 10.9101ZM10.3032 16.3644C9.96507 16.3655 9.63395 16.4609 9.34702 16.6397C9.06008 16.8186 8.82868 17.0739 8.6788 17.3769C7.52794 17.1151 6.45809 16.5772 5.5616 15.8095C4.66512 15.0419 3.96894 14.0675 3.53318 12.9707L2.42443 13.4188C2.93944 14.7217 3.76908 15.8769 4.83927 16.7811C5.90947 17.6853 7.18691 18.3104 8.55755 18.6007C8.63628 18.9343 8.80771 19.239 9.05208 19.4794C9.29645 19.7199 9.6038 19.8864 9.9387 19.9597C10.2736 20.033 10.6224 20.0102 10.9449 19.8938C11.2674 19.7775 11.5504 19.5724 11.7614 19.3021C11.9723 19.0319 12.1026 18.7075 12.1372 18.3664C12.1717 18.0254 12.1092 17.6815 11.9568 17.3744C11.8044 17.0673 11.5683 16.8095 11.2757 16.6309C10.9831 16.4522 10.646 16.3598 10.3032 16.3644ZM10.3032 18.7888C10.1424 18.7888 9.98818 18.7249 9.87449 18.6112C9.7608 18.4975 9.69693 18.3433 9.69693 18.1826C9.69693 18.0218 9.7608 17.8676 9.87449 17.7539C9.98818 17.6402 10.1424 17.5763 10.3032 17.5763C10.464 17.5763 10.6182 17.6402 10.7319 17.7539C10.8456 17.8676 10.9094 18.0218 10.9094 18.1826C10.9094 18.3433 10.8456 18.4975 10.7319 18.6112C10.6182 18.7249 10.464 18.7888 10.3032 18.7888ZM20 10.3032C20.0012 9.97867 19.9154 9.65977 19.7517 9.37957C19.588 9.09937 19.3524 8.86806 19.0692 8.70965C18.7859 8.55124 18.4655 8.47148 18.1411 8.47866C17.8166 8.48584 17.5 8.5797 17.2241 8.75048C16.9482 8.92127 16.723 9.16278 16.5718 9.44995C16.4207 9.73712 16.3492 10.0595 16.3646 10.3836C16.3801 10.7078 16.482 11.0219 16.6598 11.2934C16.8376 11.5648 17.0847 11.7838 17.3757 11.9276C17.1138 13.0783 16.5758 14.148 15.8082 15.0444C15.0405 15.9408 14.0662 16.6368 12.9694 17.0726L13.4182 18.1819C14.7211 17.6669 15.8763 16.8373 16.7805 15.7671C17.6847 14.6969 18.3098 13.4194 18.6 12.0488C18.9946 11.9555 19.3466 11.733 19.6003 11.4168C19.8539 11.1005 19.9946 10.7086 20 10.3032ZM18.1813 10.9094C18.0205 10.9094 17.8663 10.8456 17.7526 10.7319C17.6389 10.6182 17.5751 10.464 17.5751 10.3032C17.5751 10.1424 17.6389 9.98819 17.7526 9.87449C17.8663 9.7608 18.0205 9.69693 18.1813 9.69693C18.3421 9.69693 18.4963 9.7608 18.61 9.87449C18.7237 9.98819 18.7875 10.1424 18.7875 10.3032C18.7875 10.464 18.7237 10.6182 18.61 10.7319C18.4963 10.8456 18.3421 10.9094 18.1813 10.9094Z" fill="#045D78"/>
<path d="M11.9937 10.2185C12.3385 9.88183 12.5752 9.44998 12.6734 8.97814C12.7717 8.50631 12.7271 8.01589 12.5453 7.56953C12.3635 7.12317 12.0528 6.74112 11.6529 6.47217C11.2529 6.20322 10.7819 6.05957 10.3 6.05957C9.818 6.05957 9.34699 6.20322 8.94705 6.47217C8.54712 6.74112 8.23643 7.12317 8.05464 7.56953C7.87286 8.01589 7.82825 8.50631 7.92649 8.97814C8.02473 9.44998 8.26138 9.88183 8.60621 10.2185C8.19577 10.4958 7.85957 10.8695 7.62705 11.3069C7.39453 11.7443 7.27278 12.232 7.27246 12.7273V13.9392H13.3331V12.7267C13.3321 12.2308 13.2095 11.7428 12.976 11.3054C12.7425 10.868 12.4052 10.4952 11.9937 10.2185ZM9.09059 8.48416C9.09059 8.32493 9.12195 8.16726 9.18288 8.02016C9.24382 7.87305 9.33313 7.73939 9.44572 7.62679C9.55831 7.5142 9.69197 7.42489 9.83908 7.36396C9.98619 7.30302 10.1439 7.27166 10.3031 7.27166C10.4623 7.27166 10.62 7.30302 10.7671 7.36396C10.9142 7.42489 11.0479 7.5142 11.1605 7.62679C11.273 7.73939 11.3624 7.87305 11.4233 8.02016C11.4842 8.16726 11.5156 8.32493 11.5156 8.48416C11.5156 8.80574 11.3878 9.11414 11.1605 9.34153C10.9331 9.56892 10.6247 9.69666 10.3031 9.69666C9.98151 9.69666 9.67311 9.56892 9.44572 9.34153C9.21833 9.11414 9.09059 8.80574 9.09059 8.48416ZM8.48434 12.7267C8.47986 12.485 8.52358 12.2449 8.61295 12.0204C8.70233 11.7958 8.83556 11.5913 9.00486 11.4189C9.17416 11.2464 9.37614 11.1094 9.59899 11.0159C9.82184 10.9224 10.0611 10.8742 10.3028 10.8742C10.5445 10.8742 10.7837 10.9224 11.0066 11.0159C11.2294 11.1094 11.4314 11.2464 11.6007 11.4189C11.77 11.5913 11.9032 11.7958 11.9926 12.0204C12.082 12.2449 12.1257 12.485 12.1212 12.7267H8.48434Z" fill="#045D78"/>
</g>
<defs>
<clipPath id="clip0_1_626">
<rect width="20" height="20" fill="white"/>
</clipPath>
</defs>
</svg>
